# xmcd CD database file
#
# Track frame offsets:
#	150
#	8025
#	14169
#	42290
#	57281
#	85498
#	107365
#	128699
#	133236
#	160920
#	170884
#	192622
#	214385
#
# Disc length: 3026 seconds
#
# Revision: 0
# Processed by: cddbd v1.5.1PL0 Copyright (c) Steve Scherf et al.
# Submitted via: CDex 1.51
#
DISCID=be0bd00d
DTITLE=State Of the Union - Impendum
DYEAR=2004
DGENRE=New Age
TTITLE0=Impendum
TTITLE1=Escape
TTITLE2=Timerunner
TTITLE3=nara
TTITLE4=Unforgiving Time
TTITLE5=Suffer the fallen
TTITLE6=Makina manta
TTITLE7=Hypnosis
TTITLE8=Afterlife
TTITLE9=The search
TTITLE10=Lights in rhe abssys
TTITLE11=Rupture
TTITLE12=Barrenlands
EXTD=YEAR: 2004
EXTT0=
EXTT1=
EXTT2=
EXTT3=
EXTT4=
EXTT5=
EXTT6=
EXTT7=
EXTT8=
EXTT9=
EXTT10=
EXTT11=
EXTT12=
PLAYORDER=
